<?xml version="1.0" encoding="utf-8"?>
<!-- Generator: Adobe Illustrator 19.0.0, SVG Export Plug-In . SVG Version: 6.00 Build 0)  -->
<svg version="1.1" id="katman_1" xmlns="http://www.w3.org/2000/svg" xmlns:xlink="http://www.w3.org/1999/xlink" x="0px" y="0px"
	 viewBox="0 0 807.2 273.6" style="enable-background:new 0 0 807.2 273.6;" xml:space="preserve">
<style type="text/css">
	.st0{fill:#CC1417;}
	.st1{fill:#333333;}
	.st2{fill:#CDCCCC;}
</style>
<g id="XMLID_6_">
	<g id="XMLID_1_">
		<path id="XMLID_380_" class="st0" d="M539.4,91.3c-6.8,0-13.1,0-19.7,0c0-7.5,0-14.8,0-22.5c6.4,0,13,0,19.7,0
			C539.4,76.2,539.4,83.6,539.4,91.3z"/>
		<path id="XMLID_379_" class="st0" d="M568,68.6c6.6,0,13,0,19.7,0c0,7.6,0,14.9,0,22.5c-6.5,0-12.9,0-19.7,0
			C568,83.8,568,76.5,568,68.6z"/>
		<path id="XMLID_371_" class="st0" d="M519.7,95.6c6.6,0,13,0,19.7,0c0,7.5,0,14.9,0,22.5c-6.5,0-12.9,0-19.7,0
			C519.7,110.8,519.7,103.5,519.7,95.6z"/>
		<path id="XMLID_370_" class="st0" d="M587.8,95.6c0,7.5,0,14.8,0,22.4c-6.5,0-13,0-19.8,0c0-7.4,0-14.7,0-22.4
			C574.5,95.6,580.9,95.6,587.8,95.6z"/>
		<path id="XMLID_363_" class="st0" d="M563.6,122.7c0,7.6,0,14.9,0,22.4c-6.6,0-13,0-19.7,0c0-7.3,0-14.7,0-22.4
			C550.4,122.7,557,122.7,563.6,122.7z"/>
		<path id="XMLID_356_" class="st0" d="M539.4,172.2c-6.8,0-13.1,0-19.7,0c0-7.5,0-14.8,0-22.5c6.4,0,12.9,0,19.7,0
			C539.4,157.1,539.4,164.4,539.4,172.2z"/>
		<path id="XMLID_355_" class="st0" d="M568.1,149.5c6.7,0,13,0,19.6,0c0,7.5,0,14.9,0,22.5c-6.4,0-12.8,0-19.6,0
			C568.1,164.5,568.1,157,568.1,149.5z"/>
		<path id="XMLID_350_" class="st0" d="M539.3,199c-6.5,0-12.9,0-19.6,0c0-7.5,0-14.8,0-22.5c6.4,0,12.8,0,19.6,0
			C539.3,183.9,539.3,191.3,539.3,199z"/>
		<path id="XMLID_349_" class="st0" d="M567.9,198.9c0-7.4,0-14.8,0-22.4c6.6,0,13,0,19.7,0c0,7.4,0,14.7,0,22.4
			C581.2,198.9,574.7,198.9,567.9,198.9z"/>
	</g>
	<g id="XMLID_5_">
		<path id="XMLID_395_" class="st1" d="M333.3,197.5c-39.2,48.4-116.7,48.3-156.4-0.2c6.7,0,13.5,0,20.3,0c0-7.9,0-15.3,0-22.7
			c-6.8,0-13.2,0-20.2,0c0,7.8,0,15.3,0,22.9c-7.4,0-14.9,0-22.7,0c0-7.6,0-15.1,0-22.9c2.4-0.1,4.7-0.3,7.2-0.4
			c-0.2-5.6-4.6-2.8-7.3-4.1c0-25.3,0-50.8,0-76.2c2.4-1.3,6.6,1.3,6.9-4.1c-2.2-0.1-4.4-0.3-6.9-0.5c0-7.4,0-14.8,0-22.9
			c5.8,0,11.8-0.2,17.7,0.1c2.9,0.1,4.8-0.9,6.7-3c40.3-43.9,104.5-46.2,148.1-5.3C364.9,94.1,367.9,159.3,333.3,197.5
			c-0.1-7.6-0.1-15.2-0.1-22.8c-7.1,0-13.6,0-20,0c0,7.7,0,15.1,0,22.8C320.1,197.5,326.7,197.5,333.3,197.5z M201.7,66.6
			c0,7.9,0,15.3,0,22.8c6.8,0,13.2,0,19.7,0c0-7.7,0-15.2,0-22.8C214.7,66.6,208.4,66.6,201.7,66.6z M245.5,89.5
			c0-7.9,0-15.3,0-22.8c-6.8,0-13.2,0-19.7,0c0,7.7,0,15.2,0,22.8C232.5,89.5,238.8,89.5,245.5,89.5z M264.9,66.6
			c0,7.9,0,15.4,0,22.7c6.8,0,13.2,0,19.6,0c0-7.8,0-15.2,0-22.7C277.9,66.6,271.6,66.6,264.9,66.6z M309,66.8c-7,0-13.5,0-19.9,0
			c0,7.7,0,15.1,0,22.4c6.8,0,13.3,0,19.9,0C309,81.6,309,74.4,309,66.8z M332.9,89.5c0-7.6,0-15.1,0-22.8c-6.7,0-13.1,0-19.6,0
			c0,7.7,0,15.1,0,22.8C319.9,89.5,326.2,89.5,332.9,89.5z M177.5,93.6c0,7.9,0,15.4,0,22.8c6.8,0,13.2,0,19.6,0
			c0-7.7,0-15.2,0-22.8C190.5,93.6,184.2,93.6,177.5,93.6z M245.6,93.8c-6.8,0-13.3,0-19.9,0c0,7.7,0,15,0,22.5c6.8,0,13.3,0,19.9,0
			C245.6,108.6,245.6,101.3,245.6,93.8z M264.7,116.2c6.9,0,13.5,0,20,0c0-7.7,0-15,0-22.4c-6.8,0-13.3,0-20,0
			C264.7,101.4,264.7,108.6,264.7,116.2z M313.2,93.7c0,7.9,0,15.2,0,22.5c6.8,0,13.4,0,19.7,0c0-7.7,0-15.1,0-22.5
			C326.2,93.7,319.8,93.7,313.2,93.7z M177.5,120.5c0,7.9,0,15.4,0,22.8c6.8,0,13.2,0,19.6,0c0-7.7,0-15.2,0-22.8
			C190.5,120.5,184.2,120.5,177.5,120.5z M221.5,120.8c-6.6,0-13.3,0-20,0c0,7.6,0,14.9,0,22.4c6.8,0,13.3,0,20,0
			C221.5,135.7,221.5,128.4,221.5,120.8z M225.6,143.2c6.9,0,13.5,0,20,0c0-7.7,0-15,0-22.4c-6.8,0-13.3,0-20,0
			C225.6,128.3,225.6,135.6,225.6,143.2z M284.6,143.4c0-7.9,0-15.2,0-22.6c-6.8,0-13.3,0-19.8,0c0,7.7,0,15,0,22.6
			C271.5,143.4,277.9,143.4,284.6,143.4z M332.9,143.4c0-7.8,0-15.3,0-22.8c-6.8,0-13.2,0-19.7,0c0,7.7,0,15.2,0,22.8
			C319.9,143.4,326.2,143.4,332.9,143.4z M177.5,66.6c0,7.9,0,15.3,0,22.8c6.8,0,13.2,0,19.6,0c0-7.7,0-15.2,0-22.8
			C190.5,66.6,184.2,66.6,177.5,66.6z M245.5,170.4c0-7.9,0-15.4,0-22.7c-6.8,0-13.2,0-19.6,0c0,7.7,0,15.2,0,22.7
			C232.5,170.4,238.8,170.4,245.5,170.4z M284.6,170.4c0-7.9,0-15.4,0-22.8c-6.8,0-13.2,0-19.6,0c0,7.7,0,15.2,0,22.8
			C271.6,170.4,277.9,170.4,284.6,170.4z M313.2,147.6c0,7.7,0,15.1,0,22.7c6.7,0,13.1,0,19.7,0c0-7.7,0-15.1,0-22.7
			C326.2,147.6,319.8,147.6,313.2,147.6z M201.7,174.5c0,7.9,0,15.4,0,22.7c6.8,0,13.2,0,19.6,0c0-7.8,0-15.2,0-22.7
			C214.6,174.5,208.3,174.5,201.7,174.5z M245.5,197.3c0-7.9,0-15.4,0-22.7c-6.8,0-13.2,0-19.6,0c0,7.8,0,15.2,0,22.7
			C232.6,197.3,238.9,197.3,245.5,197.3z M284.7,174.6c-7,0-13.4,0-19.7,0c0,7.8,0,15.2,0,22.5c6.8,0,13.2,0,19.7,0
			C284.7,189.5,284.7,182.2,284.7,174.6z M308.9,174.6c-7,0-13.4,0-19.8,0c0,7.8,0,15.2,0,22.5c6.8,0,13.2,0,19.8,0
			C308.9,189.5,308.9,182.2,308.9,174.6z"/>
		<g id="XMLID_4_">
			<path id="XMLID_394_" class="st1" d="M46.4,66.6c7.7,0,14.9,0,22.4,0c0,7.6,0,15,0,22.7c-7.5,0-14.8,0-22.4,0
				C46.4,81.9,46.4,74.4,46.4,66.6z"/>
			<path id="XMLID_393_" class="st1" d="M95.8,89.5c-7.7,0-14.9,0-22.4,0c0-7.6,0-15,0-22.7c7.5,0,14.8,0,22.4,0
				C95.8,74.2,95.8,81.7,95.8,89.5z"/>
			<path id="XMLID_392_" class="st1" d="M123,66.9c0,7.5,0,14.8,0,22.4c-7.5,0-15,0-22.7,0c0-7.3,0-14.7,0-22.4
				C107.6,66.9,115.1,66.9,123,66.9z"/>
			<path id="XMLID_391_" class="st1" d="M149.8,89.4c-7.7,0-15.1,0-22.6,0c0-7.6,0-14.9,0-22.5c7.5,0,14.9,0,22.6,0
				C149.8,74.3,149.8,81.6,149.8,89.4z"/>
			<path id="XMLID_390_" class="st1" d="M122.8,143.3c-7.5,0-14.9,0-22.5,0c0-7.4,0-14.8,0-22.5c7.3,0,14.7,0,22.5,0
				C122.8,128.1,122.8,135.4,122.8,143.3z"/>
			<path id="XMLID_389_" class="st1" d="M73.3,116.3c0-7.6,0-14.9,0-22.5c7.5,0,14.8,0,22.5,0c0,7.3,0,14.8,0,22.5
				C88.5,116.3,81.1,116.3,73.3,116.3z"/>
			<path id="XMLID_388_" class="st1" d="M100.2,116.3c0-7.5,0-14.8,0-22.5c7.4,0,14.7,0,22.5,0c0,7.3,0,14.7,0,22.5
				C115.5,116.3,108.1,116.3,100.2,116.3z"/>
			<path id="XMLID_387_" class="st1" d="M127.2,93.7c7.6,0,15,0,22.6,0c0,7.5,0,14.9,0,22.5c-7.4,0-14.9,0-22.6,0
				C127.2,108.8,127.2,101.5,127.2,93.7z"/>
			<path id="XMLID_386_" class="st1" d="M149.7,143.4c-7.6,0-14.8,0-22.4,0c0-7.6,0-15,0-22.7c7.5,0,14.8,0,22.4,0
				C149.7,128.3,149.7,135.8,149.7,143.4z"/>
			<path id="XMLID_385_" class="st1" d="M149.7,170.3c-7.6,0-14.8,0-22.4,0c0-7.6,0-15,0-22.7c7.5,0,14.8,0,22.4,0
				C149.7,155.2,149.7,162.8,149.7,170.3z"/>
		</g>
		<g id="XMLID_2_">
			<path id="XMLID_384_" class="st1" d="M401.9,68.7c0,7.6,0,14.8,0,22.4c-6.6,0-13.1,0-19.9,0c0-7.4,0-14.7,0-22.4
				C388.5,68.7,395,68.7,401.9,68.7z"/>
			<path id="XMLID_383_" class="st1" d="M426,68.6c0,7.7,0,15,0,22.6c-6.6,0-13,0-19.8,0c0-7.5,0-14.9,0-22.6
				C412.7,68.6,419.1,68.6,426,68.6z"/>
			<path id="XMLID_382_" class="st1" d="M430.4,68.5c6.7,0,13,0,19.6,0c0,7.6,0,15,0,22.7c-6.5,0-12.9,0-19.6,0
				C430.4,83.8,430.4,76.3,430.4,68.5z"/>
			<path id="XMLID_381_" class="st1" d="M474.8,91.1c0-7.5,0-14.7,0-22.3c6.5,0,13,0,19.9,0c0,7.3,0,14.6,0,22.3
				C488.4,91.1,481.8,91.1,474.8,91.1z"/>
			<path id="XMLID_378_" class="st1" d="M612.6,68.6c6.7,0,13.1,0,19.8,0c0,7.5,0,14.9,0,22.5c-6.5,0-13,0-19.8,0
				C612.6,83.7,612.6,76.4,612.6,68.6z"/>
			<path id="XMLID_377_" class="st1" d="M636.6,91.1c0-7.6,0-14.8,0-22.4c6.6,0,13.1,0,19.9,0c0,7.4,0,14.7,0,22.4
				C650.1,91.1,643.5,91.1,636.6,91.1z"/>
			<path id="XMLID_376_" class="st1" d="M680.7,91.3c-6.7,0-13.1,0-19.8,0c0-7.5,0-14.9,0-22.5c6.5,0,13,0,19.8,0
				C680.7,76.1,680.7,83.4,680.7,91.3z"/>
			<path id="XMLID_375_" class="st1" d="M725.5,68.7c0,7.6,0,14.8,0,22.4c-6.6,0-13.1,0-19.9,0c0-7.4,0-14.7,0-22.4
				C712,68.7,718.6,68.7,725.5,68.7z"/>
			<path id="XMLID_374_" class="st1" d="M401.8,95.6c0,7.7,0,15.1,0,22.6c-6.6,0-13,0-19.8,0c0-7.5,0-14.9,0-22.6
				C388.6,95.6,395,95.6,401.8,95.6z"/>
			<path id="XMLID_373_" class="st1" d="M430.5,95.5c6.7,0,13,0,19.6,0c0,7.6,0,15,0,22.7c-6.5,0-12.9,0-19.6,0
				C430.5,110.6,430.5,103,430.5,95.5z"/>
			<path id="XMLID_372_" class="st1" d="M475,95.5c6.6,0,13,0,19.7,0c0,7.4,0,14.8,0,22.5c-6.4,0-12.9,0-19.7,0
				C475,110.8,475,103.4,475,95.5z"/>
			<path id="XMLID_369_" class="st1" d="M612.5,118.1c0-7.6,0-14.9,0-22.5c6.6,0,13,0,19.8,0c0,7.4,0,14.8,0,22.5
				C625.8,118.1,619.4,118.1,612.5,118.1z"/>
			<path id="XMLID_368_" class="st1" d="M725.2,118.3c-6.6,0-12.9,0-19.5,0c0-7.5,0-14.9,0-22.7c6.4,0,12.8,0,19.5,0
				C725.2,102.9,725.2,110.4,725.2,118.3z"/>
			<path id="XMLID_367_" class="st1" d="M401.9,122.7c0,7.5,0,14.7,0,22.3c-6.5,0-13.1,0-19.9,0c0-7.3,0-14.6,0-22.3
				C388.4,122.7,394.9,122.7,401.9,122.7z"/>
			<path id="XMLID_366_" class="st1" d="M406.3,122.4c6.7,0,13,0,19.6,0c0,7.5,0,15,0,22.7c-6.4,0-12.9,0-19.6,0
				C406.3,137.7,406.3,130.3,406.3,122.4z"/>
			<path id="XMLID_365_" class="st1" d="M430.4,122.5c6.6,0,13,0,19.7,0c0,7.4,0,14.8,0,22.5c-6.4,0-12.9,0-19.7,0
				C430.4,137.7,430.4,130.4,430.4,122.5z"/>
			<path id="XMLID_364_" class="st1" d="M475,122.5c6.8,0,13.2,0,19.8,0c0,7.5,0,14.9,0,22.5c-6.5,0-13.1,0-19.8,0
				C475,137.6,475,130.3,475,122.5z"/>
			<path id="XMLID_362_" class="st1" d="M612.6,122.4c6.7,0,13,0,19.7,0c0,7.6,0,15,0,22.7c-6.5,0-12.9,0-19.7,0
				C612.6,137.7,612.6,130.2,612.6,122.4z"/>
			<path id="XMLID_361_" class="st1" d="M636.6,145c0-7.6,0-14.8,0-22.4c6.6,0,13.1,0,19.9,0c0,7.4,0,14.7,0,22.4
				C650,145,643.5,145,636.6,145z"/>
			<path id="XMLID_360_" class="st1" d="M680.6,145.2c-6.7,0-13,0-19.7,0c0-7.6,0-15,0-22.7c6.5,0,12.9,0,19.7,0
				C680.6,130,680.6,137.4,680.6,145.2z"/>
			<path id="XMLID_359_" class="st1" d="M705.5,145.1c0-7.5,0-14.9,0-22.5c6.5,0,12.9,0,19.7,0c0,7.3,0,14.7,0,22.5
				C718.9,145.1,712.5,145.1,705.5,145.1z"/>
			<path id="XMLID_358_" class="st1" d="M382.1,149.4c6.6,0,12.9,0,19.6,0c0,7.5,0,15,0,22.7c-6.4,0-12.8,0-19.6,0
				C382.1,164.7,382.1,157.3,382.1,149.4z"/>
			<path id="XMLID_357_" class="st1" d="M494.7,172.1c-6.6,0-13,0-19.7,0c0-7.4,0-14.8,0-22.5c6.4,0,12.9,0,19.7,0
				C494.7,156.9,494.7,164.2,494.7,172.1z"/>
			<path id="XMLID_354_" class="st1" d="M632.4,149.5c0,7.7,0,15.1,0,22.6c-6.6,0-13,0-19.8,0c0-7.5,0-14.9,0-22.6
				C619.2,149.5,625.6,149.5,632.4,149.5z"/>
			<path id="XMLID_353_" class="st1" d="M705.6,149.4c6.7,0,13,0,19.7,0c0,7.6,0,15,0,22.7c-6.5,0-12.9,0-19.7,0
				C705.6,164.6,705.6,157.2,705.6,149.4z"/>
			<path id="XMLID_352_" class="st1" d="M401.8,176.5c0,7.7,0,15,0,22.6c-6.6,0-13,0-19.8,0c0-7.5,0-14.9,0-22.6
				C388.6,176.5,395,176.5,401.8,176.5z"/>
			<path id="XMLID_351_" class="st1" d="M474.8,199c0-7.6,0-14.8,0-22.4c6.6,0,13.1,0,19.9,0c0,7.4,0,14.7,0,22.4
				C488.3,199,481.8,199,474.8,199z"/>
			<path id="XMLID_348_" class="st1" d="M632.3,199.2c-6.7,0-13,0-19.7,0c0-7.6,0-15,0-22.7c6.5,0,12.9,0,19.7,0
				C632.3,183.9,632.3,191.4,632.3,199.2z"/>
			<path id="XMLID_347_" class="st1" d="M636.8,176.3c6.6,0,12.9,0,19.6,0c0,7.5,0,15,0,22.7c-6.4,0-12.8,0-19.6,0
				C636.8,191.7,636.8,184.2,636.8,176.3z"/>
			<path id="XMLID_346_" class="st1" d="M680.7,199.1c-6.6,0-13,0-19.7,0c0-7.5,0-14.8,0-22.5c6.4,0,12.9,0,19.7,0
				C680.7,183.9,680.7,191.2,680.7,199.1z"/>
			<path id="XMLID_345_" class="st1" d="M705.4,199c0-7.7,0-14.9,0-22.4c6.6,0,13.2,0,19.9,0c0,7.5,0,14.8,0,22.4
				C718.8,199,712.3,199,705.4,199z"/>
			<path id="XMLID_344_" class="st1" d="M749.4,199.2c-6.6,0-12.9,0-19.6,0c0-7.5,0-15,0-22.7c6.4,0,12.8,0,19.6,0
				C749.4,183.9,749.4,191.3,749.4,199.2z"/>
			<path id="XMLID_343_" class="st1" d="M773.7,176.5c0,7.5,0,14.9,0,22.5c-6.5,0-12.9,0-19.7,0c0-7.3,0-14.7,0-22.5
				C760.4,176.5,766.8,176.5,773.7,176.5z"/>
		</g>
		<g id="XMLID_3_">
			<path id="XMLID_342_" class="st2" d="M201.7,66.6c6.7,0,13,0,19.7,0c0,7.6,0,15,0,22.8c-6.5,0-12.9,0-19.7,0
				C201.7,81.9,201.7,74.5,201.7,66.6z"/>
			<path id="XMLID_341_" class="st2" d="M245.5,89.5c-6.7,0-13,0-19.7,0c0-7.6,0-15,0-22.8c6.5,0,12.9,0,19.7,0
				C245.5,74.2,245.5,81.6,245.5,89.5z"/>
			<path id="XMLID_340_" class="st2" d="M264.9,66.6c6.6,0,12.9,0,19.6,0c0,7.5,0,15,0,22.7c-6.4,0-12.8,0-19.6,0
				C264.9,82,264.9,74.5,264.9,66.6z"/>
			<path id="XMLID_339_" class="st2" d="M309,66.8c0,7.6,0,14.8,0,22.4c-6.6,0-13.1,0-19.9,0c0-7.3,0-14.7,0-22.4
				C295.5,66.8,302,66.8,309,66.8z"/>
			<path id="XMLID_338_" class="st2" d="M332.9,89.5c-6.7,0-13,0-19.6,0c0-7.6,0-15.1,0-22.8c6.6,0,13,0,19.6,0
				C332.9,74.4,332.9,81.9,332.9,89.5z"/>
			<path id="XMLID_337_" class="st2" d="M177.5,93.6c6.7,0,13,0,19.6,0c0,7.6,0,15,0,22.8c-6.4,0-12.9,0-19.6,0
				C177.5,108.9,177.5,101.5,177.5,93.6z"/>
			<path id="XMLID_336_" class="st2" d="M245.6,93.8c0,7.5,0,14.8,0,22.5c-6.6,0-13.1,0-19.9,0c0-7.5,0-14.8,0-22.5
				C232.3,93.8,238.9,93.8,245.6,93.8z"/>
			<path id="XMLID_335_" class="st2" d="M264.7,116.2c0-7.6,0-14.9,0-22.4c6.6,0,13.2,0,20,0c0,7.4,0,14.7,0,22.4
				C278.1,116.2,271.6,116.2,264.7,116.2z"/>
			<path id="XMLID_334_" class="st2" d="M313.2,93.7c6.6,0,13,0,19.7,0c0,7.4,0,14.8,0,22.5c-6.4,0-12.9,0-19.7,0
				C313.2,108.9,313.2,101.6,313.2,93.7z"/>
			<path id="XMLID_333_" class="st2" d="M177.5,120.5c6.7,0,13,0,19.6,0c0,7.6,0,15,0,22.8c-6.4,0-12.9,0-19.6,0
				C177.5,135.9,177.5,128.4,177.5,120.5z"/>
			<path id="XMLID_332_" class="st2" d="M221.5,120.8c0,7.6,0,14.9,0,22.4c-6.7,0-13.2,0-20,0c0-7.5,0-14.8,0-22.4
				C208.3,120.8,214.9,120.8,221.5,120.8z"/>
			<path id="XMLID_331_" class="st2" d="M225.6,143.2c0-7.6,0-14.9,0-22.4c6.6,0,13.2,0,20,0c0,7.4,0,14.7,0,22.4
				C239.1,143.2,232.6,143.2,225.6,143.2z"/>
			<path id="XMLID_330_" class="st2" d="M284.6,143.4c-6.7,0-13.1,0-19.8,0c0-7.5,0-14.9,0-22.6c6.5,0,13,0,19.8,0
				C284.6,128.1,284.6,135.5,284.6,143.4z"/>
			<path id="XMLID_329_" class="st2" d="M332.9,143.4c-6.7,0-13,0-19.7,0c0-7.6,0-15,0-22.8c6.5,0,12.9,0,19.7,0
				C332.9,128.1,332.9,135.6,332.9,143.4z"/>
			<path id="XMLID_328_" class="st2" d="M177.5,66.6c6.7,0,13,0,19.6,0c0,7.6,0,15,0,22.8c-6.5,0-12.9,0-19.6,0
				C177.5,81.9,177.5,74.5,177.5,66.6z"/>
			<path id="XMLID_327_" class="st2" d="M245.5,170.4c-6.7,0-13,0-19.6,0c0-7.6,0-15,0-22.7c6.4,0,12.8,0,19.6,0
				C245.5,155,245.5,162.5,245.5,170.4z"/>
			<path id="XMLID_326_" class="st2" d="M284.6,170.4c-6.7,0-13,0-19.6,0c0-7.6,0-15,0-22.8c6.4,0,12.9,0,19.6,0
				C284.6,155,284.6,162.5,284.6,170.4z"/>
			<path id="XMLID_325_" class="st2" d="M313.2,147.6c6.6,0,13,0,19.7,0c0,7.5,0,15,0,22.7c-6.6,0-13,0-19.7,0
				C313.2,162.7,313.2,155.3,313.2,147.6z"/>
			<path id="XMLID_324_" class="st2" d="M177,197.4c0-7.5,0-15,0-22.9c7,0,13.4,0,20.2,0c0,7.4,0,14.9,0,22.7c-6.8,0-13.5,0-20.3,0
				C176.9,197.3,177,197.4,177,197.4z"/>
			<path id="XMLID_323_" class="st2" d="M201.7,174.5c6.6,0,12.9,0,19.6,0c0,7.5,0,15,0,22.7c-6.4,0-12.8,0-19.6,0
				C201.7,189.8,201.7,182.4,201.7,174.5z"/>
			<path id="XMLID_322_" class="st2" d="M245.5,197.3c-6.6,0-12.9,0-19.6,0c0-7.5,0-15,0-22.7c6.4,0,12.8,0,19.6,0
				C245.5,182,245.5,189.4,245.5,197.3z"/>
			<path id="XMLID_321_" class="st2" d="M284.7,174.6c0,7.5,0,14.9,0,22.5c-6.5,0-12.9,0-19.7,0c0-7.3,0-14.7,0-22.5
				C271.3,174.6,277.7,174.6,284.7,174.6z"/>
			<path id="XMLID_320_" class="st2" d="M308.9,174.6c0,7.6,0,14.9,0,22.5c-6.5,0-13,0-19.8,0c0-7.3,0-14.8,0-22.5
				C295.5,174.6,301.9,174.6,308.9,174.6z"/>
			<path id="XMLID_319_" class="st2" d="M333.3,197.5c-6.6,0-13.2,0-20.1,0c0-7.8,0-15.1,0-22.8c6.4,0,12.9,0,20,0
				C333.2,182.3,333.2,190,333.3,197.5C333.2,197.6,333.3,197.5,333.3,197.5z"/>
		</g>
	</g>
</g>
</svg>
