<?xml version="1.0" encoding="utf-8"?>
<!-- Generator: Adobe Illustrator 16.0.0, SVG Export Plug-In . SVG Version: 6.00 Build 0)  -->
<!DOCTYPE svg PUBLIC "-//W3C//DTD SVG 1.1//EN" "http://www.w3.org/Graphics/SVG/1.1/DTD/svg11.dtd">
<svg version="1.1" id="Layer_1" xmlns="http://www.w3.org/2000/svg" xmlns:xlink="http://www.w3.org/1999/xlink" x="0px" y="0px"
	 width="425.197px" height="283.464px" viewBox="0 0 425.197 283.464" enable-background="new 0 0 425.197 283.464"
	 xml:space="preserve">
<g>
	<path fill="#003D54" d="M45.229,107.147c-3.488,0-6.314,2.854-6.314,6.375v46.938l35.928-53.312H45.229z"/>
	<g>
		<path fill="#003D54" d="M128.359,163.591c-2.184,0-4.43,0-7.26-4.482l-5.209-8.335l-8.605,12.813h-3.174v-42.671h2.846v38.053
			l16.194-23.915h3.581l-9.129,13.134l5.742,8.61c1.061,1.598,2.779,3.744,5.338,3.744h0.279l0.258-0.013v3.058
			C128.811,163.591,128.443,163.591,128.359,163.591z"/>
		<path fill="#003D54" d="M151.727,133.94c2.088,0,3.955,0.357,5.611,1.074c1.646,0.707,3.051,1.717,4.172,3.027
			c1.146,1.312,2.014,2.892,2.6,4.74c0.598,1.845,0.906,3.914,0.906,6.207c0,2.285-0.309,4.346-0.906,6.188
			c-0.586,1.837-1.453,3.415-2.6,4.728c-1.121,1.303-2.525,2.317-4.172,3.017c-1.656,0.707-3.523,1.057-5.611,1.057
			c-2.092,0-3.965-0.35-5.619-1.057c-1.66-0.699-3.047-1.714-4.201-3.017c-1.145-1.312-2.006-2.891-2.617-4.728
			c-0.592-1.842-0.889-3.902-0.889-6.188c0-2.293,0.297-4.362,0.889-6.207c0.611-1.849,1.473-3.429,2.617-4.74
			c1.154-1.311,2.541-2.32,4.201-3.027C147.762,134.297,149.635,133.94,151.727,133.94z M151.727,161.783
			c1.727,0,3.252-0.306,4.549-0.899c1.307-0.598,2.404-1.45,3.259-2.564c0.867-1.118,1.514-2.465,1.952-4.038
			c0.439-1.568,0.645-3.336,0.645-5.292c0-1.938-0.205-3.703-0.645-5.279c-0.438-1.587-1.085-2.942-1.952-4.07
			c-0.854-1.113-1.952-1.987-3.259-2.591c-1.297-0.608-2.822-0.913-4.549-0.913c-1.736,0-3.277,0.305-4.57,0.913
			c-1.297,0.604-2.377,1.478-3.244,2.591c-0.879,1.128-1.539,2.483-1.973,4.07c-0.447,1.576-0.672,3.341-0.672,5.279
			c0,1.956,0.225,3.724,0.672,5.292c0.434,1.573,1.094,2.92,1.973,4.038c0.867,1.114,1.947,1.967,3.244,2.564
			C148.449,161.477,149.99,161.783,151.727,161.783z"/>
		<path fill="#003D54" d="M199.055,163.591c-0.479,0-0.764-0.248-0.842-0.757l-0.287-4.609c-1.299,1.764-2.805,3.158-4.542,4.194
			c-1.732,1.037-3.671,1.558-5.823,1.558c-3.597,0-6.383-1.24-8.396-3.72c-2.006-2.487-3.01-6.215-3.01-11.186
			c0-2.128,0.283-4.115,0.83-5.969c0.58-1.846,1.393-3.45,2.482-4.805c1.076-1.366,2.41-2.432,3.986-3.212
			c1.574-0.789,3.399-1.179,5.443-1.179c1.992,0,3.695,0.366,5.15,1.106c1.443,0.731,2.699,1.796,3.762,3.207v-17.305h2.794v42.675
			H199.055z M188.35,161.721c1.933,0,3.693-0.5,5.264-1.5c1.559-0.996,2.961-2.386,4.195-4.159V140.66
			c-1.129-1.667-2.387-2.837-3.748-3.524c-1.362-0.683-2.909-1.023-4.626-1.023c-1.737,0-3.245,0.31-4.521,0.937
			c-1.303,0.628-2.375,1.508-3.248,2.646c-0.889,1.148-1.548,2.526-1.965,4.115c-0.447,1.594-0.678,3.35-0.678,5.262
			c0,4.344,0.82,7.539,2.41,9.582C183.041,160.697,185.348,161.721,188.35,161.721z"/>
	</g>
	<g>
		<path fill="#348488" d="M64.145,140.659l12.762,19.32c4.376,6.726,7.988,8.073,11.039,8.073c0.195,0,0.482,0,0.676,0l1.316-0.051
			v-54.479c0-2.375-1.281-4.44-3.207-5.541L64.145,140.659z"/>
		<path fill="#348488" d="M68.814,167.288l-10.764-17.403l-17.395,26.13c1.146,1.224,2.764,1.999,4.572,1.999h35.625
			C76.934,176.949,73.149,174.22,68.814,167.288z"/>
	</g>
	<g>
		<path fill="#348488" d="M226.818,133.908c1.26,0,2.439,0.153,3.535,0.463c1.078,0.317,2.051,0.764,2.916,1.33h7.471v0.963
			c0,0.496-0.268,0.756-0.816,0.793l-4.436,0.323c0.561,0.746,0.977,1.579,1.27,2.506c0.291,0.935,0.43,1.928,0.43,2.976
			c0,1.411-0.24,2.684-0.748,3.838c-0.508,1.138-1.221,2.122-2.135,2.931c-0.9,0.805-1.994,1.439-3.268,1.89
			c-1.279,0.448-2.684,0.671-4.219,0.671c-1.699,0-3.215-0.247-4.584-0.756c-0.818,0.472-1.473,1.024-1.939,1.671
			c-0.457,0.646-0.697,1.271-0.697,1.878c0,0.842,0.285,1.483,0.879,1.934c0.588,0.453,1.359,0.782,2.324,0.989
			c0.971,0.199,2.07,0.333,3.312,0.382c1.244,0.062,2.51,0.13,3.793,0.204c1.283,0.064,2.531,0.187,3.777,0.363
			c1.236,0.178,2.354,0.481,3.322,0.927c0.967,0.441,1.752,1.055,2.328,1.848c0.59,0.793,0.879,1.837,0.879,3.154
			c0,1.207-0.295,2.378-0.908,3.487c-0.602,1.114-1.479,2.103-2.621,2.962c-1.139,0.866-2.531,1.549-4.145,2.065
			c-1.631,0.521-3.455,0.776-5.469,0.776c-2.045,0-3.85-0.207-5.395-0.63c-1.541-0.415-2.844-0.979-3.883-1.697
			c-1.049-0.716-1.828-1.537-2.369-2.478c-0.525-0.938-0.787-1.939-0.787-2.994c0-1.541,0.498-2.87,1.514-3.992
			c1.039-1.112,2.424-1.978,4.211-2.573c-0.979-0.338-1.756-0.812-2.33-1.438c-0.586-0.631-0.865-1.503-0.865-2.61
			c0-0.414,0.072-0.85,0.229-1.301c0.154-0.442,0.391-0.89,0.705-1.329c0.312-0.438,0.684-0.854,1.133-1.247
			c0.439-0.387,0.953-0.741,1.529-1.058c-1.379-0.797-2.477-1.87-3.236-3.195c-0.77-1.329-1.166-2.891-1.166-4.671
			c0-1.401,0.256-2.683,0.752-3.829c0.498-1.134,1.195-2.122,2.121-2.938c0.906-0.83,1.996-1.464,3.297-1.915
			C223.818,134.135,225.236,133.908,226.818,133.908z M237.634,165.567c0-0.928-0.232-1.659-0.721-2.221
			c-0.475-0.56-1.115-0.991-1.918-1.304c-0.809-0.312-1.727-0.537-2.775-0.663c-1.037-0.13-2.133-0.22-3.279-0.276
			c-1.148-0.056-2.293-0.114-3.445-0.175c-1.152-0.063-2.236-0.171-3.225-0.349c-0.746,0.285-1.43,0.62-2.076,1.007
			c-0.641,0.383-1.182,0.817-1.633,1.293c-0.449,0.474-0.789,1.005-1.051,1.586c-0.256,0.572-0.391,1.207-0.391,1.89
			c0,0.866,0.223,1.658,0.672,2.391c0.436,0.732,1.088,1.366,1.932,1.905c0.854,0.538,1.898,0.964,3.131,1.27
			c1.23,0.325,2.641,0.474,4.244,0.474c1.486,0,2.877-0.167,4.15-0.49c1.289-0.341,2.398-0.812,3.354-1.41
			c0.945-0.602,1.691-1.329,2.225-2.171C237.359,167.477,237.634,166.554,237.634,165.567z M226.818,150.689
			c1.236,0,2.354-0.184,3.332-0.542c0.984-0.361,1.801-0.865,2.473-1.511c0.662-0.643,1.16-1.414,1.514-2.324
			c0.34-0.891,0.508-1.893,0.508-2.989c0-1.098-0.172-2.09-0.525-3c-0.342-0.916-0.867-1.695-1.545-2.333
			c-0.67-0.647-1.488-1.146-2.459-1.496c-0.975-0.358-2.078-0.537-3.297-0.537c-1.24,0-2.342,0.179-3.316,0.537
			c-0.986,0.35-1.814,0.849-2.486,1.496c-0.674,0.638-1.178,1.417-1.531,2.333c-0.361,0.91-0.533,1.902-0.533,3
			c0,1.097,0.172,2.099,0.533,2.989c0.354,0.91,0.857,1.682,1.531,2.324c0.672,0.646,1.5,1.149,2.486,1.511
			C224.476,150.505,225.578,150.689,226.818,150.689z"/>
		<path fill="#348488" d="M262.042,133.94c1.648,0,3.164,0.278,4.578,0.846c1.379,0.569,2.602,1.396,3.631,2.484
			c1.012,1.086,1.832,2.415,2.396,4c0.576,1.585,0.859,3.402,0.859,5.454c0,0.436-0.066,0.727-0.188,0.888
			c-0.121,0.158-0.328,0.229-0.609,0.229h-21.049v0.563c0,2.183,0.248,4.114,0.768,5.772c0.504,1.667,1.236,3.057,2.166,4.183
			c0.932,1.123,2.068,1.976,3.398,2.536c1.33,0.57,2.818,0.854,4.463,0.854c1.465,0,2.738-0.163,3.814-0.487
			c1.074-0.321,1.98-0.683,2.707-1.08c0.734-0.4,1.316-0.763,1.75-1.092c0.434-0.316,0.754-0.479,0.936-0.479
			c0.258,0,0.449,0.098,0.59,0.29l0.754,0.942c-0.457,0.585-1.078,1.134-1.859,1.638c-0.764,0.513-1.621,0.948-2.578,1.306
			c-0.953,0.365-1.949,0.654-3.055,0.865c-1.084,0.215-2.18,0.325-3.268,0.325c-1.982,0-3.807-0.35-5.451-1.037
			c-1.641-0.695-3.055-1.709-4.229-3.036c-1.184-1.337-2.09-2.963-2.727-4.886c-0.65-1.927-0.969-4.134-0.969-6.614
			c0-2.092,0.303-4.024,0.902-5.8c0.594-1.761,1.451-3.294,2.574-4.574c1.119-1.285,2.498-2.284,4.133-3.004
			C258.123,134.297,259.97,133.94,262.042,133.94z M262.093,136.023c-1.512,0-2.859,0.234-4.051,0.702
			c-1.195,0.471-2.215,1.143-3.09,2.024c-0.869,0.877-1.564,1.935-2.109,3.171c-0.527,1.228-0.881,2.605-1.062,4.134h19.217
			c0-1.567-0.227-2.977-0.648-4.213c-0.432-1.239-1.037-2.299-1.816-3.153c-0.787-0.857-1.721-1.524-2.811-1.981
			C264.625,136.251,263.425,136.023,262.093,136.023z"/>
		<path fill="#348488" d="M285.908,163.591v-29.184h1.518c0.512,0,0.807,0.244,0.881,0.74l0.256,4.211
			c0.572-0.797,1.178-1.528,1.832-2.195c0.643-0.67,1.334-1.235,2.059-1.711c0.732-0.484,1.529-0.85,2.35-1.117
			c0.828-0.269,1.711-0.396,2.627-0.396c2.133,0,3.836,0.614,5.098,1.864c1.279,1.237,2.141,2.966,2.588,5.177
			c0.354-1.219,0.848-2.269,1.48-3.139c0.643-0.884,1.357-1.609,2.184-2.19c0.816-0.573,1.707-1.004,2.68-1.293
			c0.967-0.28,1.953-0.419,2.986-0.419c1.432,0,2.727,0.236,3.883,0.72c1.148,0.475,2.127,1.182,2.951,2.122
			c0.797,0.939,1.418,2.09,1.852,3.462c0.43,1.372,0.648,2.933,0.648,4.696v18.651h-2.785V144.94c0-2.854-0.627-5.033-1.857-6.532
			c-1.242-1.492-2.979-2.244-5.271-2.244c-1.021,0-2,0.195-2.926,0.562c-0.926,0.374-1.746,0.927-2.451,1.654
			c-0.725,0.736-1.295,1.65-1.705,2.748c-0.422,1.094-0.637,2.366-0.637,3.812v18.651h-2.779V144.94
			c0-2.837-0.584-5.007-1.705-6.521c-1.141-1.499-2.797-2.256-4.969-2.256c-1.58,0-3.053,0.477-4.398,1.427
			c-1.359,0.947-2.555,2.266-3.609,3.947v22.054H285.908z"/>
		<path fill="#348488" d="M342.355,129.054c0,0.256-0.061,0.495-0.17,0.72c-0.102,0.22-0.24,0.423-0.422,0.591
			c-0.174,0.173-0.373,0.309-0.604,0.404c-0.229,0.103-0.463,0.15-0.717,0.15c-0.279,0-0.512-0.048-0.734-0.15
			c-0.232-0.096-0.422-0.231-0.596-0.404c-0.172-0.168-0.312-0.371-0.416-0.591c-0.098-0.225-0.139-0.464-0.139-0.72
			c0-0.257,0.041-0.5,0.139-0.735c0.104-0.241,0.244-0.441,0.416-0.61c0.174-0.179,0.363-0.313,0.596-0.416
			c0.223-0.098,0.455-0.146,0.734-0.146c0.254,0,0.488,0.048,0.717,0.146c0.23,0.103,0.43,0.237,0.604,0.416
			c0.182,0.169,0.32,0.369,0.422,0.61C342.294,128.554,342.355,128.797,342.355,129.054z M341.812,134.408v29.184h-2.781v-29.184
			H341.812z"/>
		<path fill="#348488" d="M373.636,138.042c-0.15,0.281-0.357,0.409-0.648,0.409c-0.219,0-0.496-0.116-0.848-0.36
			c-0.334-0.248-0.777-0.518-1.346-0.82c-0.555-0.306-1.236-0.581-2.053-0.83c-0.801-0.238-1.795-0.361-2.977-0.361
			c-1.053,0-2.021,0.154-2.898,0.459c-0.869,0.297-1.598,0.707-2.223,1.205c-0.617,0.506-1.098,1.104-1.438,1.774
			s-0.502,1.379-0.502,2.123c0,0.914,0.229,1.679,0.707,2.279c0.453,0.606,1.084,1.122,1.832,1.558
			c0.768,0.419,1.623,0.793,2.59,1.107c0.973,0.311,1.969,0.624,3.002,0.933c0.996,0.318,1.996,0.658,2.967,1.05
			c0.961,0.378,1.83,0.853,2.588,1.415c0.766,0.568,1.387,1.267,1.857,2.085c0.459,0.824,0.699,1.824,0.699,2.995
			c0,1.273-0.232,2.456-0.67,3.549c-0.477,1.092-1.146,2.041-2.021,2.846c-0.869,0.799-1.939,1.435-3.205,1.911
			c-1.268,0.463-2.717,0.692-4.338,0.692c-2.059,0-3.834-0.323-5.301-0.982c-1.5-0.648-2.83-1.506-3.998-2.564l0.68-0.987
			c0.084-0.165,0.197-0.28,0.324-0.354c0.104-0.081,0.271-0.117,0.492-0.117c0.256,0,0.553,0.154,0.939,0.472
			c0.361,0.305,0.855,0.639,1.443,1.004c0.605,0.359,1.338,0.701,2.232,1.019c0.895,0.307,1.988,0.466,3.293,0.466
			c1.229,0,2.326-0.172,3.26-0.514c0.947-0.341,1.725-0.804,2.35-1.39c0.637-0.585,1.098-1.28,1.426-2.075
			c0.326-0.786,0.486-1.628,0.486-2.506c0-0.979-0.24-1.792-0.707-2.438c-0.473-0.646-1.086-1.188-1.852-1.639
			c-0.756-0.451-1.625-0.832-2.594-1.148c-0.955-0.311-1.969-0.62-2.988-0.937c-1.027-0.313-2.016-0.654-2.994-1.027
			c-0.965-0.372-1.83-0.839-2.586-1.407c-0.77-0.565-1.398-1.257-1.861-2.065c-0.467-0.813-0.709-1.825-0.709-3.036
			c0-1.038,0.236-2.038,0.68-2.997c0.453-0.955,1.09-1.797,1.938-2.523c0.82-0.726,1.84-1.297,3.025-1.732
			c1.189-0.419,2.529-0.639,4.023-0.639c1.771,0,3.359,0.257,4.727,0.772c1.385,0.513,2.641,1.301,3.807,2.366L373.636,138.042z"/>
		<g>
			<path fill="#348488" d="M387.07,134.408v29.184h-2.789v-29.184H387.07z"/>
			<path fill="#348488" d="M387.574,129.054c0,0.256-0.062,0.495-0.164,0.72c-0.105,0.22-0.252,0.423-0.43,0.591
				c-0.164,0.173-0.373,0.309-0.598,0.404c-0.23,0.103-0.463,0.15-0.725,0.15c-0.27,0-0.514-0.048-0.74-0.15
				c-0.225-0.096-0.412-0.231-0.588-0.404c-0.166-0.168-0.307-0.371-0.41-0.591c-0.109-0.225-0.145-0.464-0.145-0.72
				c0-0.257,0.035-0.5,0.145-0.735c0.104-0.241,0.244-0.441,0.41-0.61c0.176-0.179,0.363-0.313,0.588-0.416
				c0.227-0.098,0.471-0.146,0.74-0.146c0.262,0,0.494,0.048,0.725,0.146c0.225,0.103,0.434,0.237,0.598,0.416
				c0.178,0.169,0.324,0.369,0.43,0.61C387.511,128.554,387.574,128.797,387.574,129.054z"/>
		</g>
	</g>
</g>
</svg>
