<svg id="katman_1" xmlns="http://www.w3.org/2000/svg" viewBox="0 0 807.2 273.6"><style>.st0{fill:#cc1417}.st1{fill:#333}.st2{fill:#cdcccc}</style><g id="XMLID_6_"><g id="XMLID_1_"><path id="XMLID_380_" class="st0" d="M539.4 91.3h-19.7V68.8h19.7v22.5z"/><path id="XMLID_379_" class="st0" d="M568 68.6h19.7v22.5H568V68.6z"/><path id="XMLID_371_" class="st0" d="M519.7 95.6h19.7v22.5h-19.7V95.6z"/><path id="XMLID_370_" class="st0" d="M587.8 95.6V118H568V95.6h19.8z"/><path id="XMLID_363_" class="st0" d="M563.6 122.7v22.4h-19.7v-22.4h19.7z"/><path id="XMLID_356_" class="st0" d="M539.4 172.2h-19.7v-22.5h19.7v22.5z"/><path id="XMLID_355_" class="st0" d="M568.1 149.5h19.6V172h-19.6v-22.5z"/><path id="XMLID_350_" class="st0" d="M539.3 199h-19.6v-22.5h19.6V199z"/><path id="XMLID_349_" class="st0" d="M567.9 198.9v-22.4h19.7v22.4h-19.7z"/></g><g id="XMLID_5_"><path id="XMLID_395_" class="st1" d="M333.3 197.5c-39.2 48.4-116.7 48.3-156.4-.2h20.3v-22.7H177v22.9h-22.7v-22.9c2.4-.1 4.7-.3 7.2-.4-.2-5.6-4.6-2.8-7.3-4.1V93.9c2.4-1.3 6.6 1.3 6.9-4.1-2.2-.1-4.4-.3-6.9-.5V66.4c5.8 0 11.8-.2 17.7.1 2.9.1 4.8-.9 6.7-3 40.3-43.9 104.5-46.2 148.1-5.3 38.2 35.9 41.2 101.1 6.6 139.3-.1-7.6-.1-15.2-.1-22.8h-20v22.8h20.1zM201.7 66.6v22.8h19.7V66.6h-19.7zm43.8 22.9V66.7h-19.7v22.8h19.7zm19.4-22.9v22.7h19.6V66.6h-19.6zm44.1.2h-19.9v22.4H309V66.8zm23.9 22.7V66.7h-19.6v22.8h19.6zm-155.4 4.1v22.8h19.6V93.6h-19.6zm68.1.2h-19.9v22.5h19.9V93.8zm19.1 22.4h20V93.8h-20v22.4zm48.5-22.5v22.5h19.7V93.7h-19.7zm-135.7 26.8v22.8h19.6v-22.8h-19.6zm44 .3h-20v22.4h20v-22.4zm4.1 22.4h20v-22.4h-20v22.4zm59 .2v-22.6h-19.8v22.6h19.8zm48.3 0v-22.8h-19.7v22.8h19.7zM177.5 66.6v22.8h19.6V66.6h-19.6zm68 103.8v-22.7h-19.6v22.7h19.6zm39.1 0v-22.8H265v22.8h19.6zm28.6-22.8v22.7h19.7v-22.7h-19.7zm-111.5 26.9v22.7h19.6v-22.7h-19.6zm43.8 22.8v-22.7h-19.6v22.7h19.6zm39.2-22.7H265v22.5h19.7v-22.5zm24.2 0h-19.8v22.5h19.8v-22.5z"/><g id="XMLID_4_"><path id="XMLID_394_" class="st1" d="M46.4 66.6h22.4v22.7H46.4V66.6z"/><path id="XMLID_393_" class="st1" d="M95.8 89.5H73.4V66.8h22.4v22.7z"/><path id="XMLID_392_" class="st1" d="M123 66.9v22.4h-22.7V66.9H123z"/><path id="XMLID_391_" class="st1" d="M149.8 89.4h-22.6V66.9h22.6v22.5z"/><path id="XMLID_390_" class="st1" d="M122.8 143.3h-22.5v-22.5h22.5v22.5z"/><path id="XMLID_389_" class="st1" d="M73.3 116.3V93.8h22.5v22.5H73.3z"/><path id="XMLID_388_" class="st1" d="M100.2 116.3V93.8h22.5v22.5h-22.5z"/><path id="XMLID_387_" class="st1" d="M127.2 93.7h22.6v22.5h-22.6V93.7z"/><path id="XMLID_386_" class="st1" d="M149.7 143.4h-22.4v-22.7h22.4v22.7z"/><path id="XMLID_385_" class="st1" d="M149.7 170.3h-22.4v-22.7h22.4v22.7z"/></g><g id="XMLID_2_"><path id="XMLID_384_" class="st1" d="M401.9 68.7v22.4H382V68.7h19.9z"/><path id="XMLID_383_" class="st1" d="M426 68.6v22.6h-19.8V68.6H426z"/><path id="XMLID_382_" class="st1" d="M430.4 68.5H450v22.7h-19.6V68.5z"/><path id="XMLID_381_" class="st1" d="M474.8 91.1V68.8h19.9v22.3h-19.9z"/><path id="XMLID_378_" class="st1" d="M612.6 68.6h19.8v22.5h-19.8V68.6z"/><path id="XMLID_377_" class="st1" d="M636.6 91.1V68.7h19.9v22.4h-19.9z"/><path id="XMLID_376_" class="st1" d="M680.7 91.3h-19.8V68.8h19.8v22.5z"/><path id="XMLID_375_" class="st1" d="M725.5 68.7v22.4h-19.9V68.7h19.9z"/><path id="XMLID_374_" class="st1" d="M401.8 95.6v22.6H382V95.6h19.8z"/><path id="XMLID_373_" class="st1" d="M430.5 95.5h19.6v22.7h-19.6V95.5z"/><path id="XMLID_372_" class="st1" d="M475 95.5h19.7V118H475V95.5z"/><path id="XMLID_369_" class="st1" d="M612.5 118.1V95.6h19.8v22.5h-19.8z"/><path id="XMLID_368_" class="st1" d="M725.2 118.3h-19.5V95.6h19.5v22.7z"/><path id="XMLID_367_" class="st1" d="M401.9 122.7V145H382v-22.3h19.9z"/><path id="XMLID_366_" class="st1" d="M406.3 122.4h19.6v22.7h-19.6v-22.7z"/><path id="XMLID_365_" class="st1" d="M430.4 122.5h19.7V145h-19.7v-22.5z"/><path id="XMLID_364_" class="st1" d="M475 122.5h19.8V145H475v-22.5z"/><path id="XMLID_362_" class="st1" d="M612.6 122.4h19.7v22.7h-19.7v-22.7z"/><path id="XMLID_361_" class="st1" d="M636.6 145v-22.4h19.9V145h-19.9z"/><path id="XMLID_360_" class="st1" d="M680.6 145.2h-19.7v-22.7h19.7v22.7z"/><path id="XMLID_359_" class="st1" d="M705.5 145.1v-22.5h19.7v22.5h-19.7z"/><path id="XMLID_358_" class="st1" d="M382.1 149.4h19.6v22.7h-19.6v-22.7z"/><path id="XMLID_357_" class="st1" d="M494.7 172.1H475v-22.5h19.7v22.5z"/><path id="XMLID_354_" class="st1" d="M632.4 149.5v22.6h-19.8v-22.6h19.8z"/><path id="XMLID_353_" class="st1" d="M705.6 149.4h19.7v22.7h-19.7v-22.7z"/><path id="XMLID_352_" class="st1" d="M401.8 176.5v22.6H382v-22.6h19.8z"/><path id="XMLID_351_" class="st1" d="M474.8 199v-22.4h19.9V199h-19.9z"/><path id="XMLID_348_" class="st1" d="M632.3 199.2h-19.7v-22.7h19.7v22.7z"/><path id="XMLID_347_" class="st1" d="M636.8 176.3h19.6V199h-19.6v-22.7z"/><path id="XMLID_346_" class="st1" d="M680.7 199.1H661v-22.5h19.7v22.5z"/><path id="XMLID_345_" class="st1" d="M705.4 199v-22.4h19.9V199h-19.9z"/><path id="XMLID_344_" class="st1" d="M749.4 199.2h-19.6v-22.7h19.6v22.7z"/><path id="XMLID_343_" class="st1" d="M773.7 176.5V199H754v-22.5h19.7z"/></g><g id="XMLID_3_"><path id="XMLID_342_" class="st2" d="M201.7 66.6h19.7v22.8h-19.7V66.6z"/><path id="XMLID_341_" class="st2" d="M245.5 89.5h-19.7V66.7h19.7v22.8z"/><path id="XMLID_340_" class="st2" d="M264.9 66.6h19.6v22.7h-19.6V66.6z"/><path id="XMLID_339_" class="st2" d="M309 66.8v22.4h-19.9V66.8H309z"/><path id="XMLID_338_" class="st2" d="M332.9 89.5h-19.6V66.7h19.6v22.8z"/><path id="XMLID_337_" class="st2" d="M177.5 93.6h19.6v22.8h-19.6V93.6z"/><path id="XMLID_336_" class="st2" d="M245.6 93.8v22.5h-19.9V93.8h19.9z"/><path id="XMLID_335_" class="st2" d="M264.7 116.2V93.8h20v22.4h-20z"/><path id="XMLID_334_" class="st2" d="M313.2 93.7h19.7v22.5h-19.7V93.7z"/><path id="XMLID_333_" class="st2" d="M177.5 120.5h19.6v22.8h-19.6v-22.8z"/><path id="XMLID_332_" class="st2" d="M221.5 120.8v22.4h-20v-22.4h20z"/><path id="XMLID_331_" class="st2" d="M225.6 143.2v-22.4h20v22.4h-20z"/><path id="XMLID_330_" class="st2" d="M284.6 143.4h-19.8v-22.6h19.8v22.6z"/><path id="XMLID_329_" class="st2" d="M332.9 143.4h-19.7v-22.8h19.7v22.8z"/><path id="XMLID_328_" class="st2" d="M177.5 66.6h19.6v22.8h-19.6V66.6z"/><path id="XMLID_327_" class="st2" d="M245.5 170.4h-19.6v-22.7h19.6v22.7z"/><path id="XMLID_326_" class="st2" d="M284.6 170.4H265v-22.8h19.6v22.8z"/><path id="XMLID_325_" class="st2" d="M313.2 147.6h19.7v22.7h-19.7v-22.7z"/><path id="XMLID_324_" class="st2" d="M177 197.4v-22.9h20.2v22.7h-20.3c0 .1.1.2.1.2z"/><path id="XMLID_323_" class="st2" d="M201.7 174.5h19.6v22.7h-19.6v-22.7z"/><path id="XMLID_322_" class="st2" d="M245.5 197.3h-19.6v-22.7h19.6v22.7z"/><path id="XMLID_321_" class="st2" d="M284.7 174.6v22.5H265v-22.5h19.7z"/><path id="XMLID_320_" class="st2" d="M308.9 174.6v22.5h-19.8v-22.5h19.8z"/><path id="XMLID_319_" class="st2" d="M333.3 197.5h-20.1v-22.8h20c0 7.6 0 15.3.1 22.8-.1.1 0 0 0 0z"/></g></g></g></svg>